<svg width="593" height="71" viewBox="0 0 593 71" fill="none" xmlns="http://www.w3.org/2000/svg">
<path opacity="0.1" d="M10.056 60.264L10.7699 59.5637L10.056 60.264ZM10.056 10.536L10.7665 11.2397L10.7699 11.2363L10.056 10.536ZM51.912 4.776L51.4217 5.64757L51.4282 5.65119L51.4347 5.65472L51.912 4.776ZM64.008 16.296L64.5096 17.1611L65.3826 16.6549L64.8685 15.7865L64.008 16.296ZM52.584 22.92L51.709 23.4041L52.2029 24.2969L53.0856 23.7851L52.584 22.92ZM45.48 15.912L44.9897 16.7836L44.9967 16.7875L45.0037 16.7913L45.48 15.912ZM19.272 19.464L18.5593 18.7625L18.5538 18.7682L19.272 19.464ZM19.272 51.24L18.5537 51.9358L18.5593 51.9415L19.272 51.24ZM45.48 54.888L45.9563 55.7673L45.9626 55.7638L45.48 54.888ZM52.584 47.88L53.0856 47.0149L52.1963 46.4992L51.7054 47.4025L52.584 47.88ZM64.008 54.504L64.8685 55.0135L65.3826 54.1451L64.5096 53.6389L64.008 54.504ZM52.008 66.12L52.4899 66.9963L52.4983 66.9916L52.008 66.12ZM35.112 69.344C25.2464 69.344 17.1589 66.0768 10.7699 59.5637L9.34213 60.9643C16.1371 67.8912 24.7536 71.344 35.112 71.344V69.344ZM10.7699 59.5637C4.37062 53.0402 1.168 45.0078 1.168 35.4H-0.832C-0.832 45.5042 2.55738 54.0478 9.34213 60.9643L10.7699 59.5637ZM1.168 35.4C1.168 25.7263 4.37174 17.6965 10.7665 11.2397L9.34549 9.83232C2.55626 16.6875 -0.832 25.2337 -0.832 35.4H1.168ZM10.7699 11.2363C17.1589 4.72321 25.2464 1.456 35.112 1.456V-0.544004C24.7536 -0.544004 16.1371 2.90878 9.34213 9.83572L10.7699 11.2363ZM35.112 1.456C41.0265 1.456 46.4568 2.85479 51.4217 5.64757L52.4023 3.90442C47.1272 0.937206 41.3575 -0.544004 35.112 -0.544004V1.456ZM51.4347 5.65472C56.4672 8.38844 60.3637 12.1039 63.1475 16.8055L64.8685 15.7865C61.8923 10.7601 57.7248 6.79556 52.3893 3.89727L51.4347 5.65472ZM63.5064 15.4309L52.0824 22.0549L53.0856 23.7851L64.5096 17.1611L63.5064 15.4309ZM53.459 22.4359C51.701 19.2579 49.1933 16.7861 45.9563 15.0327L45.0037 16.7913C47.9107 18.3659 50.139 20.566 51.709 23.4041L53.459 22.4359ZM45.9703 15.0404C42.7354 13.2208 39.1079 12.32 35.112 12.32V14.32C38.7961 14.32 42.0806 15.1472 44.9897 16.7836L45.9703 15.0404ZM35.112 12.32C28.3558 12.32 22.8055 14.449 18.5593 18.7625L19.9847 20.1655C23.8025 16.287 28.8122 14.32 35.112 14.32V12.32ZM18.5538 18.7682C14.3786 23.078 12.32 28.6529 12.32 35.4H14.32C14.32 29.0911 16.2294 24.042 19.9902 20.1598L18.5538 18.7682ZM12.32 35.4C12.32 42.0862 14.3805 47.6279 18.5538 51.9358L19.9902 50.5442C16.2275 46.6601 14.32 41.6418 14.32 35.4H12.32ZM18.5593 51.9415C22.8055 56.255 28.3558 58.384 35.112 58.384V56.384C28.8122 56.384 23.8025 54.417 19.9847 50.5385L18.5593 51.9415ZM35.112 58.384C39.1015 58.384 42.7239 57.5182 45.9563 55.7673L45.0037 54.0087C42.0921 55.5858 38.8025 56.384 35.112 56.384V58.384ZM45.9626 55.7638C49.254 53.9502 51.7651 51.481 53.4626 48.3575L51.7054 47.4025C50.2029 50.167 47.9781 52.3698 44.9974 54.0122L45.9626 55.7638ZM52.0824 48.7451L63.5064 55.3691L64.5096 53.6389L53.0856 47.0149L52.0824 48.7451ZM63.1475 53.9945C60.3606 58.7013 56.4909 62.451 51.5177 65.2484L52.4983 66.9916C57.7651 64.029 61.8954 60.0347 64.8685 55.0135L63.1475 53.9945ZM51.5261 65.2438C46.5614 67.9744 41.0965 69.344 35.112 69.344V71.344C41.4155 71.344 47.2146 69.8976 52.4899 66.9962L51.5261 65.2438ZM115.065 69L114.116 69.3162L114.344 70H115.065V69ZM111.033 56.904L111.982 56.5878L111.754 55.904H111.033V56.904ZM84.249 56.904V55.904H83.5282L83.3003 56.5878L84.249 56.904ZM80.217 69V70H80.9378L81.1657 69.3162L80.217 69ZM65.913 69L64.9691 68.6696L64.5035 70H65.913V69ZM89.433 1.8V0.799995H88.7235L88.4891 1.46964L89.433 1.8ZM105.849 1.8L106.792 1.46844L106.558 0.799995H105.849V1.8ZM129.465 69V70H130.876L130.408 68.6684L129.465 69ZM88.473 44.52L87.525 44.2018L87.0825 45.52H88.473V44.52ZM106.905 44.52V45.52H108.295L107.853 44.2018L106.905 44.52ZM97.689 17.064L98.637 16.7458L97.689 13.9215L96.741 16.7458L97.689 17.064ZM116.014 68.6838L111.982 56.5878L110.084 57.2202L114.116 69.3162L116.014 68.6838ZM111.033 55.904H84.249V57.904H111.033V55.904ZM83.3003 56.5878L79.2683 68.6838L81.1657 69.3162L85.1977 57.2202L83.3003 56.5878ZM80.217 68H65.913V70H80.217V68ZM66.8569 69.3304L90.3769 2.13035L88.4891 1.46964L64.9691 68.6696L66.8569 69.3304ZM89.433 2.8H105.849V0.799995H89.433V2.8ZM104.906 2.13155L128.522 69.3316L130.408 68.6684L106.792 1.46844L104.906 2.13155ZM129.465 68H115.065V70H129.465V68ZM88.473 45.52H106.905V43.52H88.473V45.52ZM107.853 44.2018L98.637 16.7458L96.741 17.3822L105.957 44.8382L107.853 44.2018ZM96.741 16.7458L87.525 44.2018L89.421 44.8382L98.637 17.3822L96.741 16.7458ZM149.238 56.328H148.238V57.328H149.238V56.328ZM174.87 56.328H175.87V55.328H174.87V56.328ZM174.87 69V70H175.87V69H174.87ZM135.99 69H134.99V70H135.99V69ZM135.99 1.8V0.799995H134.99V1.8H135.99ZM149.238 1.8H150.238V0.799995H149.238V1.8ZM149.238 57.328H174.87V55.328H149.238V57.328ZM173.87 56.328V69H175.87V56.328H173.87ZM174.87 68H135.99V70H174.87V68ZM136.99 69V1.8H134.99V69H136.99ZM135.99 2.8H149.238V0.799995H135.99V2.8ZM148.238 1.8V56.328H150.238V1.8H148.238ZM185.087 60.264L185.801 59.5637L185.087 60.264ZM185.087 10.536L185.798 11.2397L185.801 11.2363L185.087 10.536ZM226.943 4.776L226.453 5.64757L226.459 5.65119L226.466 5.65472L226.943 4.776ZM239.039 16.296L239.541 17.1611L240.414 16.6549L239.9 15.7865L239.039 16.296ZM227.615 22.92L226.74 23.4041L227.234 24.2969L228.117 23.7851L227.615 22.92ZM220.511 15.912L220.021 16.7836L220.028 16.7875L220.035 16.7913L220.511 15.912ZM194.303 19.464L193.591 18.7625L193.585 18.7682L194.303 19.464ZM194.303 51.24L193.585 51.9358L193.591 51.9415L194.303 51.24ZM220.511 54.888L220.988 55.7673L220.994 55.7638L220.511 54.888ZM227.615 47.88L228.117 47.0149L227.228 46.4992L226.737 47.4025L227.615 47.88ZM239.039 54.504L239.9 55.0135L240.414 54.1451L239.541 53.6389L239.039 54.504ZM227.039 66.12L227.521 66.9963L227.53 66.9916L227.039 66.12ZM210.143 69.344C200.278 69.344 192.19 66.0768 185.801 59.5637L184.373 60.9643C191.168 67.8912 199.785 71.344 210.143 71.344V69.344ZM185.801 59.5637C179.402 53.0402 176.199 45.0078 176.199 35.4H174.199C174.199 45.5042 177.589 54.0478 184.373 60.9643L185.801 59.5637ZM176.199 35.4C176.199 25.7263 179.403 17.6965 185.798 11.2397L184.377 9.83232C177.588 16.6875 174.199 25.2337 174.199 35.4H176.199ZM185.801 11.2363C192.19 4.72321 200.278 1.456 210.143 1.456V-0.544004C199.785 -0.544004 191.168 2.90878 184.373 9.83572L185.801 11.2363ZM210.143 1.456C216.058 1.456 221.488 2.85479 226.453 5.64757L227.434 3.90442C222.158 0.937206 216.389 -0.544004 210.143 -0.544004V1.456ZM226.466 5.65472C231.498 8.38844 235.395 12.1039 238.179 16.8055L239.9 15.7865C236.924 10.7601 232.756 6.79556 227.421 3.89727L226.466 5.65472ZM238.538 15.4309L227.114 22.0549L228.117 23.7851L239.541 17.1611L238.538 15.4309ZM228.49 22.4359C226.732 19.2579 224.225 16.7861 220.988 15.0327L220.035 16.7913C222.942 18.3659 225.17 20.566 226.74 23.4041L228.49 22.4359ZM221.002 15.0404C217.767 13.2208 214.139 12.32 210.143 12.32V14.32C213.827 14.32 217.112 15.1472 220.021 16.7836L221.002 15.0404ZM210.143 12.32C203.387 12.32 197.837 14.449 193.591 18.7625L195.016 20.1655C198.834 16.287 203.843 14.32 210.143 14.32V12.32ZM193.585 18.7682C189.41 23.078 187.351 28.6529 187.351 35.4H189.351C189.351 29.0911 191.261 24.042 195.021 20.1598L193.585 18.7682ZM187.351 35.4C187.351 42.0862 189.412 47.6279 193.585 51.9358L195.021 50.5442C191.259 46.6601 189.351 41.6418 189.351 35.4H187.351ZM193.591 51.9415C197.837 56.255 203.387 58.384 210.143 58.384V56.384C203.843 56.384 198.834 54.417 195.016 50.5385L193.591 51.9415ZM210.143 58.384C214.133 58.384 217.755 57.5182 220.988 55.7673L220.035 54.0087C217.123 55.5858 213.834 56.384 210.143 56.384V58.384ZM220.994 55.7638C224.285 53.9502 226.796 51.481 228.494 48.3575L226.737 47.4025C225.234 50.167 223.009 52.3698 220.029 54.0122L220.994 55.7638ZM227.114 48.7451L238.538 55.3691L239.541 53.6389L228.117 47.0149L227.114 48.7451ZM238.179 53.9945C235.392 58.7013 231.522 62.451 226.549 65.2484L227.53 66.9916C232.796 64.029 236.927 60.0347 239.9 55.0135L238.179 53.9945ZM226.557 65.2438C221.593 67.9744 216.128 69.344 210.143 69.344V71.344C216.447 71.344 222.246 69.8976 227.521 66.9962L226.557 65.2438ZM253.802 64.008L253.141 64.7587L253.802 64.008ZM246.602 1.8V0.799995H245.602V1.8H246.602ZM259.754 1.8H260.754V0.799995H259.754V1.8ZM262.729 54.312L262.011 55.0078L262.017 55.0135L262.022 55.0191L262.729 54.312ZM281.642 54.312L280.934 53.6049L280.929 53.6105L280.923 53.6162L281.642 54.312ZM284.714 1.8V0.799995H283.714V1.8H284.714ZM297.962 1.8H298.962V0.799995H297.962V1.8ZM290.762 64.008L291.422 64.7587L290.762 64.008ZM272.233 69.344C264.945 69.344 259.049 67.2937 254.462 63.2573L253.141 64.7587C258.154 69.1703 264.546 71.344 272.233 71.344V69.344ZM254.462 63.2573C249.903 59.2455 247.602 53.8683 247.602 47.016H245.602C245.602 54.3717 248.1 60.3225 253.141 64.7587L254.462 63.2573ZM247.602 47.016V1.8H245.602V47.016H247.602ZM246.602 2.8H259.754V0.799995H246.602V2.8ZM258.754 1.8V45.96H260.754V1.8H258.754ZM258.754 45.96C258.754 49.6754 259.806 52.7317 262.011 55.0078L263.448 53.6162C261.685 51.7963 260.754 49.2846 260.754 45.96H258.754ZM262.022 55.0191C264.332 57.3284 267.807 58.384 272.233 58.384V56.384C268.084 56.384 265.223 55.3916 263.437 53.6049L262.022 55.0191ZM272.233 58.384C276.657 58.384 280.11 57.3297 282.36 55.0078L280.923 53.6162C279.205 55.3903 276.386 56.384 272.233 56.384V58.384ZM282.349 55.0191C284.623 52.7445 285.714 49.6843 285.714 45.96H283.714C283.714 49.2757 282.756 51.7835 280.934 53.6049L282.349 55.0191ZM285.714 45.96V1.8H283.714V45.96H285.714ZM284.714 2.8H297.962V0.799995H284.714V2.8ZM296.962 1.8V47.016H298.962V1.8H296.962ZM296.962 47.016C296.962 53.8683 294.66 59.2455 290.101 63.2573L291.422 64.7587C296.463 60.3225 298.962 54.3717 298.962 47.016H296.962ZM290.101 63.2573C285.516 67.2924 279.589 69.344 272.233 69.344V71.344C279.982 71.344 286.407 69.1716 291.422 64.7587L290.101 63.2573ZM323.144 56.328H322.144V57.328H323.144V56.328ZM348.776 56.328H349.776V55.328H348.776V56.328ZM348.776 69V70H349.776V69H348.776ZM309.896 69H308.896V70H309.896V69ZM309.896 1.8V0.799995H308.896V1.8H309.896ZM323.144 1.8H324.144V0.799995H323.144V1.8ZM323.144 57.328H348.776V55.328H323.144V57.328ZM347.776 56.328V69H349.776V56.328H347.776ZM348.776 68H309.896V70H348.776V68ZM310.896 69V1.8H308.896V69H310.896ZM309.896 2.8H323.144V0.799995H309.896V2.8ZM322.144 1.8V56.328H324.144V1.8H322.144ZM401.378 69L400.429 69.3162L400.657 70H401.378V69ZM397.345 56.904L398.294 56.5878L398.066 55.904H397.345V56.904ZM370.561 56.904V55.904H369.841L369.613 56.5878L370.561 56.904ZM366.53 69V70H367.25L367.478 69.3162L366.53 69ZM352.225 69L351.282 68.6696L350.816 70H352.225V69ZM375.746 1.8V0.799995H375.036L374.802 1.46964L375.746 1.8ZM392.161 1.8L393.105 1.46844L392.87 0.799995H392.161V1.8ZM415.777 69V70H417.189L416.721 68.6684L415.777 69ZM374.785 44.52L373.837 44.2018L373.395 45.52H374.785V44.52ZM393.217 44.52V45.52H394.608L394.166 44.2018L393.217 44.52ZM384.001 17.064L384.95 16.7458L384.001 13.9215L383.053 16.7458L384.001 17.064ZM402.326 68.6838L398.294 56.5878L396.397 57.2202L400.429 69.3162L402.326 68.6838ZM397.345 55.904H370.561V57.904H397.345V55.904ZM369.613 56.5878L365.581 68.6838L367.478 69.3162L371.51 57.2202L369.613 56.5878ZM366.53 68H352.225V70H366.53V68ZM353.169 69.3304L376.689 2.13035L374.802 1.46964L351.282 68.6696L353.169 69.3304ZM375.746 2.8H392.161V0.799995H375.746V2.8ZM391.218 2.13155L414.834 69.3316L416.721 68.6684L393.105 1.46844L391.218 2.13155ZM415.777 68H401.378V70H415.777V68ZM374.785 45.52H393.217V43.52H374.785V45.52ZM394.166 44.2018L384.95 16.7458L383.053 17.3822L392.269 44.8382L394.166 44.2018ZM383.053 16.7458L373.837 44.2018L375.734 44.8382L384.95 17.3822L383.053 16.7458ZM461.875 1.8H462.875V0.799995H461.875V1.8ZM461.875 14.472V15.472H462.875V14.472H461.875ZM443.732 14.472V13.472H442.732V14.472H443.732ZM443.732 69V70H444.732V69H443.732ZM430.483 69H429.483V70H430.483V69ZM430.483 14.472H431.483V13.472H430.483V14.472ZM412.435 14.472H411.435V15.472H412.435V14.472ZM412.435 1.8V0.799995H411.435V1.8H412.435ZM460.875 1.8V14.472H462.875V1.8H460.875ZM461.875 13.472H443.732V15.472H461.875V13.472ZM442.732 14.472V69H444.732V14.472H442.732ZM443.732 68H430.483V70H443.732V68ZM431.483 69V14.472H429.483V69H431.483ZM430.483 13.472H412.435V15.472H430.483V13.472ZM413.435 14.472V1.8H411.435V14.472H413.435ZM412.435 2.8H461.875V0.799995H412.435V2.8ZM521.971 60.264L522.675 60.9745L522.679 60.9711L521.971 60.264ZM472.435 60.264L471.725 60.9678L471.732 60.9744L472.435 60.264ZM472.435 10.632L471.728 9.92489L472.435 10.632ZM521.971 10.632L521.264 11.3391L521.268 11.3424L521.971 10.632ZM481.747 51.24L481.04 51.9471L481.046 51.9526L481.747 51.24ZM512.659 51.24L513.361 51.9526L513.367 51.9471L512.659 51.24ZM512.659 19.56L513.367 18.8529L512.659 19.56ZM481.747 19.56L481.04 18.8529L481.747 19.56ZM521.268 59.5536C514.675 66.0842 506.673 69.344 497.203 69.344V71.344C507.19 71.344 515.7 67.8838 522.675 60.9744L521.268 59.5536ZM497.203 69.344C487.734 69.344 479.732 66.0842 473.139 59.5536L471.732 60.9744C478.707 67.8838 487.217 71.344 497.203 71.344V69.344ZM473.146 59.5602C466.617 52.9688 463.355 44.9359 463.355 35.4H461.355C461.355 45.4481 464.814 53.9912 471.725 60.9678L473.146 59.5602ZM463.355 35.4C463.355 25.8642 466.616 17.8653 473.143 11.3391L471.728 9.92489C464.815 16.8387 461.355 25.3518 461.355 35.4H463.355ZM473.143 11.3391C479.736 4.74556 487.737 1.456 497.203 1.456V-0.544004C487.214 -0.544004 478.703 2.95043 471.728 9.92489L473.143 11.3391ZM497.203 1.456C506.67 1.456 514.671 4.74556 521.264 11.3391L522.679 9.92489C515.704 2.95043 507.193 -0.544004 497.203 -0.544004V1.456ZM521.268 11.3424C527.857 17.8694 531.148 25.8672 531.148 35.4H533.148C533.148 25.3488 529.654 16.8346 522.675 9.92155L521.268 11.3424ZM531.148 35.4C531.148 44.9329 527.857 52.9647 521.264 59.5569L522.679 60.9711C529.654 53.9953 533.148 45.4511 533.148 35.4H531.148ZM481.046 51.9526C485.404 56.2432 490.812 58.384 497.203 58.384V56.384C491.307 56.384 486.411 54.4288 482.449 50.5274L481.046 51.9526ZM497.203 58.384C503.595 58.384 509.003 56.2432 513.361 51.9526L511.958 50.5274C507.996 54.4288 503.1 56.384 497.203 56.384V58.384ZM513.367 51.9471C517.732 47.5822 519.899 42.0395 519.899 35.4H517.899C517.899 41.5605 515.907 46.5778 511.952 50.5329L513.367 51.9471ZM519.899 35.4C519.899 28.7605 517.732 23.2178 513.367 18.8529L511.952 20.2671C515.907 24.2222 517.899 29.2395 517.899 35.4H519.899ZM513.367 18.8529C509.01 14.4963 503.6 12.32 497.203 12.32V14.32C503.095 14.32 507.989 16.3037 511.952 20.2671L513.367 18.8529ZM497.203 12.32C490.807 12.32 485.397 14.4963 481.04 18.8529L482.455 20.2671C486.418 16.3037 491.312 14.32 497.203 14.32V12.32ZM481.04 18.8529C476.675 23.2178 474.508 28.7605 474.508 35.4H476.508C476.508 29.2395 478.5 24.2222 482.455 20.2671L481.04 18.8529ZM474.508 35.4C474.508 42.0395 476.675 47.5822 481.04 51.9471L482.455 50.5329C478.5 46.5778 476.508 41.5605 476.508 35.4H474.508ZM578.323 69L577.458 69.5019L577.747 70H578.323V69ZM564.787 45.672L565.652 45.1701L565.363 44.672H564.787V45.672ZM554.707 45.672V44.672H553.707V45.672H554.707ZM554.707 69V70H555.707V69H554.707ZM541.459 69H540.459V70H541.459V69ZM541.459 1.8V0.799995H540.459V1.8H541.459ZM584.179 8.328L584.886 7.62089V7.62089L584.179 8.328ZM587.155 35.688L587.984 36.2462L587.989 36.2393L587.155 35.688ZM577.747 43.656L577.33 42.7472L576.324 43.2086L576.884 44.1623L577.747 43.656ZM592.627 69V70H594.373L593.489 68.4937L592.627 69ZM554.707 14.184V13.184H553.707V14.184H554.707ZM554.707 34.056H553.707V35.056H554.707V34.056ZM574.771 31.176L575.502 31.8583L575.507 31.8523L575.513 31.8463L574.771 31.176ZM574.771 17.064L574.04 17.7463L574.771 17.064ZM579.188 68.4981L565.652 45.1701L563.922 46.1739L577.458 69.5019L579.188 68.4981ZM564.787 44.672H554.707V46.672H564.787V44.672ZM553.707 45.672V69H555.707V45.672H553.707ZM554.707 68H541.459V70H554.707V68ZM542.459 69V1.8H540.459V69H542.459ZM541.459 2.8H568.339V0.799995H541.459V2.8ZM568.339 2.8C574.284 2.8 579.309 4.87246 583.472 9.0351L584.886 7.62089C580.344 3.07953 574.809 0.799995 568.339 0.799995V2.8ZM583.472 9.0351C587.636 13.1999 589.707 18.1937 589.707 24.072H591.707C591.707 17.6623 589.425 12.1601 584.886 7.62089L583.472 9.0351ZM589.707 24.072C589.707 28.0293 588.584 31.7106 586.32 35.1367L587.989 36.2393C590.461 32.4974 591.707 28.4347 591.707 24.072H589.707ZM586.325 35.1298C584.061 38.4952 581.069 41.0309 577.33 42.7472L578.164 44.5648C582.233 42.6971 585.512 39.9208 587.984 36.2462L586.325 35.1298ZM576.884 44.1623L591.764 69.5063L593.489 68.4937L578.609 43.1497L576.884 44.1623ZM592.627 68H578.323V70H592.627V68ZM553.707 14.184V34.056H555.707V14.184H553.707ZM554.707 35.056H568.339V33.056H554.707V35.056ZM568.339 35.056C571.128 35.056 573.532 33.9691 575.502 31.8583L574.04 30.4937C572.426 32.2229 570.542 33.056 568.339 33.056V35.056ZM575.513 31.8463C577.476 29.6726 578.459 27.0636 578.459 24.072H576.459C576.459 26.5844 575.649 28.7114 574.029 30.5057L575.513 31.8463ZM578.459 24.072C578.459 21.0801 577.476 18.4964 575.502 16.3817L574.04 17.7463C575.65 19.4716 576.459 21.5599 576.459 24.072H578.459ZM575.502 16.3817C573.532 14.2709 571.128 13.184 568.339 13.184V15.184C570.542 15.184 572.426 16.017 574.04 17.7463L575.502 16.3817ZM568.339 13.184H554.707V15.184H568.339V13.184Z" fill="#20242D"/>
</svg>
