<svg width="471" height="71" viewBox="0 0 471 71" fill="none" xmlns="http://www.w3.org/2000/svg">
<path opacity="0.1" d="M10.056 60.264L10.7699 59.5637L10.056 60.264ZM10.056 10.536L10.7665 11.2397L10.7699 11.2363L10.056 10.536ZM51.912 4.776L51.4217 5.64757L51.4282 5.65119L51.4347 5.65472L51.912 4.776ZM64.008 16.296L64.5096 17.1611L65.3826 16.6549L64.8685 15.7865L64.008 16.296ZM52.584 22.92L51.709 23.4041L52.2029 24.2969L53.0856 23.7851L52.584 22.92ZM45.48 15.912L44.9897 16.7836L44.9967 16.7875L45.0037 16.7913L45.48 15.912ZM19.272 19.464L18.5593 18.7625L18.5538 18.7682L19.272 19.464ZM19.272 51.24L18.5537 51.9358L18.5593 51.9415L19.272 51.24ZM45.48 54.888L45.9563 55.7673L45.9626 55.7638L45.48 54.888ZM52.584 47.88L53.0856 47.0149L52.1963 46.4992L51.7054 47.4025L52.584 47.88ZM64.008 54.504L64.8685 55.0135L65.3826 54.1451L64.5096 53.6389L64.008 54.504ZM52.008 66.12L52.4899 66.9963L52.4983 66.9916L52.008 66.12ZM35.112 69.344C25.2464 69.344 17.1589 66.0768 10.7699 59.5637L9.34213 60.9643C16.1371 67.8912 24.7536 71.344 35.112 71.344V69.344ZM10.7699 59.5637C4.37062 53.0402 1.168 45.0078 1.168 35.4H-0.832C-0.832 45.5042 2.55738 54.0478 9.34213 60.9643L10.7699 59.5637ZM1.168 35.4C1.168 25.7263 4.37174 17.6965 10.7665 11.2397L9.34549 9.83232C2.55626 16.6875 -0.832 25.2337 -0.832 35.4H1.168ZM10.7699 11.2363C17.1589 4.72321 25.2464 1.456 35.112 1.456V-0.544004C24.7536 -0.544004 16.1371 2.90878 9.34213 9.83572L10.7699 11.2363ZM35.112 1.456C41.0265 1.456 46.4568 2.85479 51.4217 5.64757L52.4023 3.90442C47.1272 0.937206 41.3575 -0.544004 35.112 -0.544004V1.456ZM51.4347 5.65472C56.4672 8.38844 60.3637 12.1039 63.1475 16.8055L64.8685 15.7865C61.8923 10.7601 57.7248 6.79556 52.3893 3.89727L51.4347 5.65472ZM63.5064 15.4309L52.0824 22.0549L53.0856 23.7851L64.5096 17.1611L63.5064 15.4309ZM53.459 22.4359C51.701 19.2579 49.1933 16.7861 45.9563 15.0327L45.0037 16.7913C47.9107 18.3659 50.139 20.566 51.709 23.4041L53.459 22.4359ZM45.9703 15.0404C42.7354 13.2208 39.1079 12.32 35.112 12.32V14.32C38.7961 14.32 42.0806 15.1472 44.9897 16.7836L45.9703 15.0404ZM35.112 12.32C28.3558 12.32 22.8055 14.449 18.5593 18.7625L19.9847 20.1655C23.8025 16.287 28.8122 14.32 35.112 14.32V12.32ZM18.5538 18.7682C14.3786 23.078 12.32 28.6529 12.32 35.4H14.32C14.32 29.0911 16.2294 24.042 19.9902 20.1598L18.5538 18.7682ZM12.32 35.4C12.32 42.0862 14.3805 47.6279 18.5538 51.9358L19.9902 50.5442C16.2275 46.6601 14.32 41.6418 14.32 35.4H12.32ZM18.5593 51.9415C22.8055 56.255 28.3558 58.384 35.112 58.384V56.384C28.8122 56.384 23.8025 54.417 19.9847 50.5385L18.5593 51.9415ZM35.112 58.384C39.1015 58.384 42.7239 57.5182 45.9563 55.7673L45.0037 54.0087C42.0921 55.5858 38.8025 56.384 35.112 56.384V58.384ZM45.9626 55.7638C49.254 53.9502 51.7651 51.481 53.4626 48.3575L51.7054 47.4025C50.2029 50.167 47.9781 52.3698 44.9974 54.0122L45.9626 55.7638ZM52.0824 48.7451L63.5064 55.3691L64.5096 53.6389L53.0856 47.0149L52.0824 48.7451ZM63.1475 53.9945C60.3606 58.7013 56.4909 62.451 51.5177 65.2484L52.4983 66.9916C57.7651 64.029 61.8954 60.0347 64.8685 55.0135L63.1475 53.9945ZM51.5261 65.2438C46.5614 67.9744 41.0965 69.344 35.112 69.344V71.344C41.4155 71.344 47.2146 69.8976 52.4899 66.9962L51.5261 65.2438ZM115.065 69L114.116 69.3162L114.344 70H115.065V69ZM111.033 56.904L111.982 56.5878L111.754 55.904H111.033V56.904ZM84.249 56.904V55.904H83.5282L83.3003 56.5878L84.249 56.904ZM80.217 69V70H80.9378L81.1657 69.3162L80.217 69ZM65.913 69L64.9691 68.6696L64.5035 70H65.913V69ZM89.433 1.8V0.799995H88.7235L88.4891 1.46964L89.433 1.8ZM105.849 1.8L106.792 1.46844L106.558 0.799995H105.849V1.8ZM129.465 69V70H130.876L130.408 68.6684L129.465 69ZM88.473 44.52L87.525 44.2018L87.0825 45.52H88.473V44.52ZM106.905 44.52V45.52H108.295L107.853 44.2018L106.905 44.52ZM97.689 17.064L98.637 16.7458L97.689 13.9215L96.741 16.7458L97.689 17.064ZM116.014 68.6838L111.982 56.5878L110.084 57.2202L114.116 69.3162L116.014 68.6838ZM111.033 55.904H84.249V57.904H111.033V55.904ZM83.3003 56.5878L79.2683 68.6838L81.1657 69.3162L85.1977 57.2202L83.3003 56.5878ZM80.217 68H65.913V70H80.217V68ZM66.8569 69.3304L90.3769 2.13035L88.4891 1.46964L64.9691 68.6696L66.8569 69.3304ZM89.433 2.8H105.849V0.799995H89.433V2.8ZM104.906 2.13155L128.522 69.3316L130.408 68.6684L106.792 1.46844L104.906 2.13155ZM129.465 68H115.065V70H129.465V68ZM88.473 45.52H106.905V43.52H88.473V45.52ZM107.853 44.2018L98.637 16.7458L96.741 17.3822L105.957 44.8382L107.853 44.2018ZM96.741 16.7458L87.525 44.2018L89.421 44.8382L98.637 17.3822L96.741 16.7458ZM149.238 56.328H148.238V57.328H149.238V56.328ZM174.87 56.328H175.87V55.328H174.87V56.328ZM174.87 69V70H175.87V69H174.87ZM135.99 69H134.99V70H135.99V69ZM135.99 1.8V0.799995H134.99V1.8H135.99ZM149.238 1.8H150.238V0.799995H149.238V1.8ZM149.238 57.328H174.87V55.328H149.238V57.328ZM173.87 56.328V69H175.87V56.328H173.87ZM174.87 68H135.99V70H174.87V68ZM136.99 69V1.8H134.99V69H136.99ZM135.99 2.8H149.238V0.799995H135.99V2.8ZM148.238 1.8V56.328H150.238V1.8H148.238ZM195.644 56.328H194.644V57.328H195.644V56.328ZM221.276 56.328H222.276V55.328H221.276V56.328ZM221.276 69V70H222.276V69H221.276ZM182.396 69H181.396V70H182.396V69ZM182.396 1.8V0.799995H181.396V1.8H182.396ZM195.644 1.8H196.644V0.799995H195.644V1.8ZM195.644 57.328H221.276V55.328H195.644V57.328ZM220.276 56.328V69H222.276V56.328H220.276ZM221.276 68H182.396V70H221.276V68ZM183.396 69V1.8H181.396V69H183.396ZM182.396 2.8H195.644V0.799995H182.396V2.8ZM194.644 1.8V56.328H196.644V1.8H194.644ZM269.41 34.152L268.784 33.3723L267.644 34.2883L268.911 35.0185L269.41 34.152ZM272.194 63.528L271.524 62.7865L272.194 63.528ZM228.803 69H227.803V70H228.803V69ZM228.803 1.8V0.799995H227.803V1.8H228.803ZM269.794 7.17599L269.118 7.91265L269.125 7.91841L269.131 7.92407L269.794 7.17599ZM242.051 14.184V13.184H241.051V14.184H242.051ZM242.051 28.968H241.051V29.968H242.051V28.968ZM260.387 26.856L259.679 26.1489L259.671 26.1571L259.663 26.1655L260.387 26.856ZM262.883 54.408L263.59 55.1151L263.597 55.1076L263.604 55.0999L262.883 54.408ZM262.883 43.08L262.161 43.7719L262.168 43.7796L262.175 43.7871L262.883 43.08ZM242.051 40.776V39.776H241.051V40.776H242.051ZM242.051 56.616H241.051V57.616H242.051V56.616ZM268.911 35.0185C274.486 38.2303 277.242 43.0182 277.242 49.512H279.242C279.242 42.3099 276.111 36.8577 269.91 33.2855L268.911 35.0185ZM277.242 49.512C277.242 54.9406 275.335 59.338 271.524 62.7865L272.865 64.2695C277.118 60.422 279.242 55.4754 279.242 49.512H277.242ZM271.524 62.7865C267.691 66.2537 262.977 68 257.315 68V70C263.428 70 268.634 68.0983 272.865 64.2695L271.524 62.7865ZM257.315 68H228.803V70H257.315V68ZM229.803 69V1.8H227.803V69H229.803ZM228.803 2.8H255.298V0.799995H228.803V2.8ZM255.298 2.8C260.832 2.8 265.415 4.51337 269.118 7.91265L270.471 6.43934C266.366 2.67062 261.285 0.799995 255.298 0.799995V2.8ZM269.131 7.92407C272.876 11.2463 274.746 15.4817 274.746 20.712H276.746C276.746 14.9343 274.649 10.1457 270.458 6.42792L269.131 7.92407ZM274.746 20.712C274.746 25.9867 272.764 30.1761 268.784 33.3723L270.037 34.9317C274.505 31.3439 276.746 26.5733 276.746 20.712H274.746ZM255.298 13.184H242.051V15.184H255.298V13.184ZM241.051 14.184V28.968H243.051V14.184H241.051ZM242.051 29.968H255.298V27.968H242.051V29.968ZM255.298 29.968C257.604 29.968 259.566 29.1634 261.11 27.5465L259.663 26.1655C258.519 27.3646 257.089 27.968 255.298 27.968V29.968ZM261.094 27.5631C262.701 25.9553 263.499 23.9354 263.499 21.576H261.499C261.499 23.4406 260.888 24.9407 259.679 26.1489L261.094 27.5631ZM263.499 21.576C263.499 19.2308 262.743 17.2162 261.206 15.6055L259.759 16.9865C260.91 18.1918 261.499 19.6972 261.499 21.576H263.499ZM261.206 15.6055C259.656 13.9819 257.658 13.184 255.298 13.184V15.184C257.163 15.184 258.621 15.7941 259.759 16.9865L261.206 15.6055ZM257.315 57.616C259.797 57.616 261.915 56.7898 263.59 55.1151L262.175 53.7009C260.906 54.9702 259.312 55.616 257.315 55.616V57.616ZM263.604 55.0999C265.271 53.3615 266.091 51.1864 266.091 48.648H264.091C264.091 50.7176 263.439 52.3825 262.161 53.7161L263.604 55.0999ZM266.091 48.648C266.091 46.1651 265.264 44.0476 263.59 42.3729L262.175 43.7871C263.445 45.0564 264.091 46.6509 264.091 48.648H266.091ZM263.604 42.3881C261.933 40.6439 259.811 39.776 257.315 39.776V41.776C259.298 41.776 260.888 42.4441 262.161 43.7719L263.604 42.3881ZM257.315 39.776H242.051V41.776H257.315V39.776ZM241.051 40.776V56.616H243.051V40.776H241.051ZM242.051 57.616H257.315V55.616H242.051V57.616ZM330.128 69L329.179 69.3162L329.407 70H330.128V69ZM326.095 56.904L327.044 56.5878L326.816 55.904H326.095V56.904ZM299.311 56.904V55.904H298.591L298.363 56.5878L299.311 56.904ZM295.28 69V70H296L296.228 69.3162L295.28 69ZM280.975 69L280.032 68.6696L279.566 70H280.975V69ZM304.496 1.8V0.799995H303.786L303.552 1.46964L304.496 1.8ZM320.911 1.8L321.855 1.46844L321.62 0.799995H320.911V1.8ZM344.527 69V70H345.939L345.471 68.6684L344.527 69ZM303.535 44.52L302.587 44.2018L302.145 45.52H303.535V44.52ZM321.967 44.52V45.52H323.358L322.916 44.2018L321.967 44.52ZM312.751 17.064L313.7 16.7458L312.751 13.9215L311.803 16.7458L312.751 17.064ZM331.076 68.6838L327.044 56.5878L325.147 57.2202L329.179 69.3162L331.076 68.6838ZM326.095 55.904H299.311V57.904H326.095V55.904ZM298.363 56.5878L294.331 68.6838L296.228 69.3162L300.26 57.2202L298.363 56.5878ZM295.28 68H280.975V70H295.28V68ZM281.919 69.3304L305.439 2.13035L303.552 1.46964L280.032 68.6696L281.919 69.3304ZM304.496 2.8H320.911V0.799995H304.496V2.8ZM319.968 2.13155L343.584 69.3316L345.471 68.6684L321.855 1.46844L319.968 2.13155ZM344.527 68H330.128V70H344.527V68ZM303.535 45.52H321.967V43.52H303.535V45.52ZM322.916 44.2018L313.7 16.7458L311.803 17.3822L321.019 44.8382L322.916 44.2018ZM311.803 16.7458L302.587 44.2018L304.484 44.8382L313.7 17.3822L311.803 16.7458ZM355.431 60.264L356.145 59.5637L355.431 60.264ZM355.431 10.536L356.142 11.2397L356.145 11.2363L355.431 10.536ZM397.287 4.776L396.797 5.64757L396.803 5.65119L396.81 5.65472L397.287 4.776ZM409.383 16.296L409.885 17.1611L410.758 16.6549L410.243 15.7865L409.383 16.296ZM397.959 22.92L397.084 23.4041L397.578 24.2969L398.461 23.7851L397.959 22.92ZM390.855 15.912L390.365 16.7836L390.372 16.7875L390.379 16.7913L390.855 15.912ZM364.647 19.464L363.934 18.7625L363.929 18.7682L364.647 19.464ZM364.647 51.24L363.929 51.9358L363.934 51.9415L364.647 51.24ZM390.855 54.888L391.331 55.7673L391.338 55.7638L390.855 54.888ZM397.959 47.88L398.461 47.0149L397.571 46.4992L397.08 47.4025L397.959 47.88ZM409.383 54.504L410.243 55.0135L410.758 54.1451L409.885 53.6389L409.383 54.504ZM397.383 66.12L397.865 66.9963L397.873 66.9916L397.383 66.12ZM380.487 69.344C370.621 69.344 362.534 66.0768 356.145 59.5637L354.717 60.9643C361.512 67.8912 370.129 71.344 380.487 71.344V69.344ZM356.145 59.5637C349.746 53.0402 346.543 45.0078 346.543 35.4H344.543C344.543 45.5042 347.932 54.0478 354.717 60.9643L356.145 59.5637ZM346.543 35.4C346.543 25.7263 349.747 17.6965 356.142 11.2397L354.72 9.83232C347.931 16.6875 344.543 25.2337 344.543 35.4H346.543ZM356.145 11.2363C362.534 4.72321 370.621 1.456 380.487 1.456V-0.544004C370.129 -0.544004 361.512 2.90878 354.717 9.83572L356.145 11.2363ZM380.487 1.456C386.402 1.456 391.832 2.85479 396.797 5.64757L397.777 3.90442C392.502 0.937206 386.732 -0.544004 380.487 -0.544004V1.456ZM396.81 5.65472C401.842 8.38844 405.739 12.1039 408.523 16.8055L410.243 15.7865C407.267 10.7601 403.1 6.79556 397.764 3.89727L396.81 5.65472ZM408.881 15.4309L397.457 22.0549L398.461 23.7851L409.885 17.1611L408.881 15.4309ZM398.834 22.4359C397.076 19.2579 394.568 16.7861 391.331 15.0327L390.379 16.7913C393.286 18.3659 395.514 20.566 397.084 23.4041L398.834 22.4359ZM391.345 15.0404C388.11 13.2208 384.483 12.32 380.487 12.32V14.32C384.171 14.32 387.456 15.1472 390.365 16.7836L391.345 15.0404ZM380.487 12.32C373.731 12.32 368.18 14.449 363.934 18.7625L365.36 20.1655C369.178 16.287 374.187 14.32 380.487 14.32V12.32ZM363.929 18.7682C359.754 23.078 357.695 28.6529 357.695 35.4H359.695C359.695 29.0911 361.604 24.042 365.365 20.1598L363.929 18.7682ZM357.695 35.4C357.695 42.0862 359.755 47.6279 363.929 51.9358L365.365 50.5442C361.603 46.6601 359.695 41.6418 359.695 35.4H357.695ZM363.934 51.9415C368.18 56.255 373.731 58.384 380.487 58.384V56.384C374.187 56.384 369.178 54.417 365.36 50.5385L363.934 51.9415ZM380.487 58.384C384.476 58.384 388.099 57.5182 391.331 55.7673L390.379 54.0087C387.467 55.5858 384.178 56.384 380.487 56.384V58.384ZM391.338 55.7638C394.629 53.9502 397.14 51.481 398.838 48.3575L397.08 47.4025C395.578 50.167 393.353 52.3698 390.372 54.0122L391.338 55.7638ZM397.457 48.7451L408.881 55.3691L409.885 53.6389L398.461 47.0149L397.457 48.7451ZM408.523 53.9945C405.736 58.7013 401.866 62.451 396.893 65.2484L397.873 66.9916C403.14 64.029 407.27 60.0347 410.243 55.0135L408.523 53.9945ZM396.901 65.2438C391.936 67.9744 386.471 69.344 380.487 69.344V71.344C386.791 71.344 392.59 69.8976 397.865 66.9962L396.901 65.2438ZM470.033 69V70H472.029L470.834 68.4014L470.033 69ZM454.769 69L453.974 69.6062L454.274 70H454.769V69ZM430.769 37.512L431.565 36.9058L429.769 34.5504V37.512H430.769ZM430.769 69V70H431.769V69H430.769ZM417.521 69H416.521V70H417.521V69ZM417.521 1.8V0.799995H416.521V1.8H417.521ZM430.769 1.8H431.769V0.799995H430.769V1.8ZM430.769 31.464H429.769V34.3817L431.559 32.0774L430.769 31.464ZM453.809 1.8V0.799995H453.32L453.02 1.18659L453.809 1.8ZM469.073 1.8L469.869 2.40597L471.092 0.799995H469.073V1.8ZM444.209 34.44L443.414 33.834L442.957 34.4342L443.408 35.0386L444.209 34.44ZM470.033 68H454.769V70H470.033V68ZM455.565 68.3938L431.565 36.9058L429.974 38.1182L453.974 69.6062L455.565 68.3938ZM429.769 37.512V69H431.769V37.512H429.769ZM430.769 68H417.521V70H430.769V68ZM418.521 69V1.8H416.521V69H418.521ZM417.521 2.8H430.769V0.799995H417.521V2.8ZM429.769 1.8V31.464H431.769V1.8H429.769ZM431.559 32.0774L454.599 2.4134L453.02 1.18659L429.979 30.8506L431.559 32.0774ZM453.809 2.8H469.073V0.799995H453.809V2.8ZM468.278 1.19402L443.414 33.834L445.005 35.046L469.869 2.40597L468.278 1.19402ZM443.408 35.0386L469.232 69.5986L470.834 68.4014L445.01 33.8414L443.408 35.0386Z" fill="#20242D"/>
</svg>
